{"asset":{"version":"2.0","generator":"VECTARY"},"nodes":[{"translation":[1.7344031638030166,0.2648096705493029,5.684341886080802e-17],"scale":[0.005324734728669075,0.005324734728669075,0.005324734728669075],"rotation":[0.7071067811865476,0,0,0.7071067811865475],"name":"Sphere 1 & Box 2 & Box 1","mesh":0},{"translation":[1.7344031638030166,-0.01916055475460419,-0.295450841604183],"scale":[0.005324734728669075,0.005324734728669075,0.005324734728669075],"rotation":[2.220446049250313e-16,0,0,1],"name":"Sphere 1 & Box 2 & Box 1 & Box","mesh":1},{"translation":[1.7336952692678234,-0.018256377287131337,-0.00022869698170516095],"scale":[0.0005324734728669075,0.0005324734728669076,0.0005324734728669075],"rotation":[0.7060604901791049,-0.0018228316516215525,-0.0018174611849206578,0.7081468479966941],"name":"Cylinder - baked","mesh":2},{"translation":[0.3268866381611705,0.25696544404255517,2.842170943040401e-17],"scale":[0.001,0.001,0.001],"rotation":[-0.7071067811865475,0,0,0.7071067811865476],"name":"Point Light","extensions":{"KHR_lights_punctual":{"light":0}}},{"translation":[0,0.0017324857015613288,3.3306690738754697e-19],"scale":[0.005324734728669075,0.005324734728669075,0.005324734728669075],"rotation":[-0.7071067811865475,0,0,0.7071067811865476],"name":"FINN 2 - baked","children":[5,6,7,8,9,10,11,12,13,14,15,16,17,18]},{"translation":[323.7898600347497,0,-0.1],"scale":[1,1,1],"rotation":[0,0,0,1],"name":"gorro","mesh":3},{"translation":[323.7898600347497,0,2],"scale":[1,1,1],"rotation":[0,0,0,1],"name":"gorro stroke","mesh":4},{"translation":[323.7898600347497,0,0],"scale":[1,1,1],"rotation":[0,0,0,1],"name":"cara","mesh":5},{"translation":[323.7898600347497,0,2],"scale":[1,1,1],"rotation":[0,0,0,1],"name":"cara stroke","mesh":6},{"translation":[323.7898600347497,0,1],"scale":[1,1,1],"rotation":[0,0,0,1],"name":"rell cachete izq","mesh":7},{"translation":[323.7898600347497,0,2],"scale":[1,1,1],"rotation":[0,0,0,1],"name":"cachete izq","mesh":8},{"translation":[323.7898600347497,0,1],"scale":[1,1,1],"rotation":[0,0,0,1],"name":"rell cachete der","mesh":9},{"translation":[323.7898600347497,0,2],"scale":[1,1,1],"rotation":[0,0,0,1],"name":"cachete der","mesh":10},{"translation":[323.7898600347497,0,1],"scale":[1,1,1],"rotation":[0,0,0,1],"name":"ojo izq","mesh":11},{"translation":[323.7898600347497,0,1],"scale":[1,1,1],"rotation":[0,0,0,1],"name":"ojo der","mesh":12},{"translation":[323.7898600347497,0,1],"scale":[1,1,1],"rotation":[0,0,0,1],"name":"jeta","mesh":13},{"translation":[323.7898600347497,0,0],"scale":[1,1,1],"rotation":[0,0,0,1],"name":"cuerpo","mesh":14},{"translation":[323.7898600347497,0,2],"scale":[1,1,1],"rotation":[0,0,0,1],"name":"cuerpo stroke","mesh":15},{"translation":[0,0,0],"scale":[1,1,1],"rotation":[0,0,0,1],"name":"FINN landmass 1 - baked","children":[19,20]},{"translation":[-1.25232,1.4967409999999997,-0.5822548415046283],"scale":[1,0.9800000000000001,1],"rotation":[0,0,0,1],"name":"Path","mesh":16},{"translation":[-1.2523279163954157,1.496741,0],"scale":[0.987,0.98,1],"rotation":[0,0,0,1],"name":"Path 1","mesh":17}],"materials":[{"pbrMetallicRoughness":{"baseColorFactor":[0,0,0,1],"metallicFactor":1,"roughnessFactor":0.27},"name":"Dallas","emissiveFactor":[0,0,0],"extensions":{},"alphaMode":"OPAQUE","doubleSided":true},{"pbrMetallicRoughness":{"baseColorFactor":[0.7011695015314021,0.7011695015314021,0.7011695015314021,1],"metallicFactor":0,"roughnessFactor":0},"name":"Arctic","emissiveFactor":[0,0,0],"extensions":{},"alphaMode":"OPAQUE","doubleSided":true},{"pbrMetallicRoughness":{"baseColorFactor":[0,0,0,1],"metallicFactor":0,"roughnessFactor":1},"name":"Lunar Dust","emissiveFactor":[0,0,0],"extensions":{},"alphaMode":"OPAQUE","doubleSided":true},{"pbrMetallicRoughness":{"baseColorFactor":[0.5604991522043282,0.3066347662031576,0.14497212559723088,1],"metallicFactor":0,"roughnessFactor":1},"name":"Noah","emissiveFactor":[0,0,0],"extensions":{},"alphaMode":"OPAQUE","doubleSided":true},{"pbrMetallicRoughness":{"baseColorFactor":[0,0,0,1],"metallicFactor":0,"roughnessFactor":1},"name":"Nepal","emissiveFactor":[0,0,0],"extensions":{},"alphaMode":"OPAQUE","doubleSided":true},{"pbrMetallicRoughness":{"baseColorFactor":[0.6054842999109071,0.02201299491933654,0.12198571316961948,1],"metallicFactor":0,"roughnessFactor":0},"name":"Melanie","emissiveFactor":[0,0,0],"extensions":{},"alphaMode":"OPAQUE","doubleSided":true},{"pbrMetallicRoughness":{"baseColorFactor":[0,0,0,1],"metallicFactor":0,"roughnessFactor":1},"name":"Pyramid","emissiveFactor":[0,0,0],"extensions":{},"alphaMode":"OPAQUE","doubleSided":true},{"pbrMetallicRoughness":{"baseColorFactor":[0,0,0,1],"metallicFactor":0,"roughnessFactor":1},"name":"Safari","emissiveFactor":[0,0,0],"extensions":{},"alphaMode":"OPAQUE","doubleSided":true},{"pbrMetallicRoughness":{"baseColorFactor":[0,0,0,1],"metallicFactor":0,"roughnessFactor":1},"name":"Rosetta","emissiveFactor":[0,0,0],"extensions":{},"alphaMode":"OPAQUE","doubleSided":true},{"pbrMetallicRoughness":{"baseColorFactor":[0,0,0,1],"metallicFactor":0,"roughnessFactor":1},"name":"Instant Glory","emissiveFactor":[0,0,0],"extensions":{},"alphaMode":"OPAQUE","doubleSided":true},{"pbrMetallicRoughness":{"baseColorFactor":[0,0,0,1],"metallicFactor":0,"roughnessFactor":1},"name":"Emerald Glitter","emissiveFactor":[0,0,0],"extensions":{},"alphaMode":"OPAQUE","doubleSided":true},{"pbrMetallicRoughness":{"baseColorFactor":[0,0.0697270844425988,0.24680041960155044,1],"metallicFactor":0,"roughnessFactor":0},"name":"Garden Glow","emissiveFactor":[0,0,0],"extensions":{},"alphaMode":"OPAQUE","doubleSided":true},{"pbrMetallicRoughness":{"baseColorFactor":[0,0,0,1],"metallicFactor":0,"roughnessFactor":1},"name":"Timeless Beauty","emissiveFactor":[0,0,0],"extensions":{},"alphaMode":"OPAQUE","doubleSided":true},{"pbrMetallicRoughness":{"baseColorFactor":[0,0,0,1],"metallicFactor":0,"roughnessFactor":1},"name":"Ocean Tropic","emissiveFactor":[0,0,0],"extensions":{},"alphaMode":"OPAQUE","doubleSided":true}],"meshes":[{"primitives":[{"mode":4,"attributes":{"POSITION":1,"NORMAL":2,"TEXCOORD_0":3},"material":0,"indices":0}]},{"primitives":[{"mode":4,"attributes":{"POSITION":5,"NORMAL":6,"TEXCOORD_0":7},"material":0,"indices":4}]},{"primitives":[{"mode":4,"attributes":{"POSITION":9,"NORMAL":10,"TEXCOORD_0":11},"material":0,"indices":8}]},{"primitives":[{"mode":4,"attributes":{"POSITION":13,"NORMAL":14,"TEXCOORD_0":15},"material":1,"indices":12}]},{"primitives":[{"mode":4,"attributes":{"POSITION":17,"NORMAL":18,"TEXCOORD_0":19},"material":2,"indices":16}]},{"primitives":[{"mode":4,"attributes":{"POSITION":21,"NORMAL":22,"TEXCOORD_0":23},"material":3,"indices":20}]},{"primitives":[{"mode":4,"attributes":{"POSITION":25,"NORMAL":26,"TEXCOORD_0":27},"material":4,"indices":24}]},{"primitives":[{"mode":4,"attributes":{"POSITION":29,"NORMAL":30,"TEXCOORD_0":31},"material":5,"indices":28}]},{"primitives":[{"mode":4,"attributes":{"POSITION":33,"NORMAL":34,"TEXCOORD_0":35},"material":6,"indices":32}]},{"primitives":[{"mode":4,"attributes":{"POSITION":37,"NORMAL":38,"TEXCOORD_0":39},"material":5,"indices":36}]},{"primitives":[{"mode":4,"attributes":{"POSITION":41,"NORMAL":42,"TEXCOORD_0":43},"material":7,"indices":40}]},{"primitives":[{"mode":4,"attributes":{"POSITION":45,"NORMAL":46,"TEXCOORD_0":47},"material":8,"indices":44}]},{"primitives":[{"mode":4,"attributes":{"POSITION":49,"NORMAL":50,"TEXCOORD_0":51},"material":9,"indices":48}]},{"primitives":[{"mode":4,"attributes":{"POSITION":53,"NORMAL":54,"TEXCOORD_0":55},"material":10,"indices":52}]},{"primitives":[{"mode":4,"attributes":{"POSITION":57,"NORMAL":58,"TEXCOORD_0":59},"material":11,"indices":56}]},{"primitives":[{"mode":4,"attributes":{"POSITION":61,"NORMAL":62,"TEXCOORD_0":63},"material":0,"indices":60}]},{"primitives":[{"mode":4,"attributes":{"POSITION":65,"NORMAL":66,"TEXCOORD_0":67},"material":12,"indices":64}]},{"primitives":[{"mode":4,"attributes":{"POSITION":69,"NORMAL":70,"TEXCOORD_0":71},"material":13,"indices":68}]}],"accessors":[{"bufferView":0,"byteOffset":0,"componentType":5125,"count":1140,"type":"SCALAR"},{"bufferView":1,"byteOffset":0,"componentType":5126,"count":640,"max":[49.86906814575195,49.86906814575195,58.30778121948242],"min":[-49.86906814575195,-49.86906814575195,52.665199279785156],"type":"VEC3"},{"bufferView":2,"byteOffset":0,"componentType":5126,"count":640,"type":"VEC3"},{"bufferView":3,"byteOffset":0,"componentType":5126,"count":640,"type":"VEC2"},{"bufferView":4,"byteOffset":0,"componentType":5125,"count":618,"type":"SCALAR"},{"bufferView":5,"byteOffset":0,"componentType":5126,"count":344,"max":[49.86906814575195,0.6651992797851562,58.30778121948242],"min":[-49.86906814575195,-49.86906814575195,52.665199279785156],"type":"VEC3"},{"bufferView":6,"byteOffset":0,"componentType":5126,"count":344,"type":"VEC3"},{"bufferView":7,"byteOffset":0,"componentType":5126,"count":344,"type":"VEC2"},{"bufferView":8,"byteOffset":0,"componentType":5125,"count":6912,"type":"SCALAR"},{"bufferView":9,"byteOffset":0,"componentType":5126,"count":1458,"max":[48.20351791381836,48.20351791381836,467.3999938964844],"min":[-48.20351791381836,-48.20351791381836,-155.8000030517578],"type":"VEC3"},{"bufferView":10,"byteOffset":0,"componentType":5126,"count":1458,"type":"VEC3"},{"bufferView":11,"byteOffset":0,"componentType":5126,"count":1458,"type":"VEC2"},{"bufferView":12,"byteOffset":0,"componentType":5125,"count":3948,"type":"SCALAR"},{"bufferView":13,"byteOffset":0,"componentType":5126,"count":1984,"max":[131.53314208984375,154.9977569580078,12.199999809265137],"min":[-131.46517944335938,-89.31166076660156,0.20000000298023224],"type":"VEC3"},{"bufferView":14,"byteOffset":0,"componentType":5126,"count":1984,"type":"VEC3"},{"bufferView":15,"byteOffset":0,"componentType":5126,"count":1984,"type":"VEC2"},{"bufferView":16,"byteOffset":0,"componentType":5125,"count":8112,"type":"SCALAR"},{"bufferView":17,"byteOffset":0,"componentType":5126,"count":4108,"max":[134.03372192382812,157.50119018554688,12.199999809265137],"min":[-133.96542358398438,-91.811767578125,0.20000000298023224],"type":"VEC3"},{"bufferView":18,"byteOffset":0,"componentType":5126,"count":4108,"type":"VEC3"},{"bufferView":19,"byteOffset":0,"componentType":5126,"count":4108,"type":"VEC2"},{"bufferView":20,"byteOffset":0,"componentType":5125,"count":2868,"type":"SCALAR"},{"bufferView":21,"byteOffset":0,"componentType":5126,"count":1440,"max":[94.88479614257812,60.69770050048828,12.199999809265137],"min":[-96.49909973144531,-65.74034118652344,0.20000000298023224],"type":"VEC3"},{"bufferView":22,"byteOffset":0,"componentType":5126,"count":1440,"type":"VEC3"},{"bufferView":23,"byteOffset":0,"componentType":5126,"count":1440,"type":"VEC2"},{"bufferView":24,"byteOffset":0,"componentType":5125,"count":5856,"type":"SCALAR"},{"bufferView":25,"byteOffset":0,"componentType":5126,"count":2954,"max":[97.38493347167969,63.19776916503906,12.199999809265137],"min":[-98.99922180175781,-68.24040222167969,0.20000000298023224],"type":"VEC3"},{"bufferView":26,"byteOffset":0,"componentType":5126,"count":2954,"type":"VEC3"},{"bufferView":27,"byteOffset":0,"componentType":5126,"count":2954,"type":"VEC2"},{"bufferView":28,"byteOffset":0,"componentType":5125,"count":1428,"type":"SCALAR"},{"bufferView":29,"byteOffset":0,"componentType":5126,"count":720,"max":[-56,12.276992797851562,12.199999809265137],"min":[-85,-18.723007202148438,0.20000000298023224],"type":"VEC3"},{"bufferView":30,"byteOffset":0,"componentType":5126,"count":720,"type":"VEC3"},{"bufferView":31,"byteOffset":0,"componentType":5126,"count":720,"type":"VEC2"},{"bufferView":32,"byteOffset":0,"componentType":5125,"count":2880,"type":"SCALAR"},{"bufferView":33,"byteOffset":0,"componentType":5126,"count":1440,"max":[-53.49919891357422,14.778030395507812,12.199999809265137],"min":[-87.50080871582031,-21.224029541015625,0.20000000298023224],"type":"VEC3"},{"bufferView":34,"byteOffset":0,"componentType":5126,"count":1440,"type":"VEC3"},{"bufferView":35,"byteOffset":0,"componentType":5126,"count":1440,"type":"VEC2"},{"bufferView":36,"byteOffset":0,"componentType":5125,"count":1428,"type":"SCALAR"},{"bufferView":37,"byteOffset":0,"componentType":5126,"count":720,"max":[78,18.276992797851562,12.199999809265137],"min":[49,-12.723007202148438,0.20000000298023224],"type":"VEC3"},{"bufferView":38,"byteOffset":0,"componentType":5126,"count":720,"type":"VEC3"},{"bufferView":39,"byteOffset":0,"componentType":5126,"count":720,"type":"VEC2"},{"bufferView":40,"byteOffset":0,"componentType":5125,"count":2880,"type":"SCALAR"},{"bufferView":41,"byteOffset":0,"componentType":5126,"count":1440,"max":[80.50080871582031,20.778030395507812,12.199999809265137],"min":[46.49919128417969,-15.224029541015625,0.20000000298023224],"type":"VEC3"},{"bufferView":42,"byteOffset":0,"componentType":5126,"count":1440,"type":"VEC3"},{"bufferView":43,"byteOffset":0,"componentType":5126,"count":1440,"type":"VEC2"},{"bufferView":44,"byteOffset":0,"componentType":5125,"count":708,"type":"SCALAR"},{"bufferView":45,"byteOffset":0,"componentType":5126,"count":360,"max":[-46.5,28.776992797851562,12.199999809265137],"min":[-53.5,14.776992797851562,0.20000000298023224],"type":"VEC3"},{"bufferView":46,"byteOffset":0,"componentType":5126,"count":360,"type":"VEC3"},{"bufferView":47,"byteOffset":0,"componentType":5126,"count":360,"type":"VEC2"},{"bufferView":48,"byteOffset":0,"componentType":5125,"count":708,"type":"SCALAR"},{"bufferView":49,"byteOffset":0,"componentType":5126,"count":360,"max":[46.5,32.777000427246094,12.199999809265137],"min":[39.5,18.776992797851562,0.20000000298023224],"type":"VEC3"},{"bufferView":50,"byteOffset":0,"componentType":5126,"count":360,"type":"VEC3"},{"bufferView":51,"byteOffset":0,"componentType":5126,"count":360,"type":"VEC2"},{"bufferView":52,"byteOffset":0,"componentType":5125,"count":1764,"type":"SCALAR"},{"bufferView":53,"byteOffset":0,"componentType":5126,"count":896,"max":[17.99908447265625,11.276092529296875,12.199999809265137],"min":[-17.481094360351562,-9.723953247070312,0.20000000298023224],"type":"VEC3"},{"bufferView":54,"byteOffset":0,"componentType":5126,"count":896,"type":"VEC3"},{"bufferView":55,"byteOffset":0,"componentType":5126,"count":896,"type":"VEC2"},{"bufferView":56,"byteOffset":0,"componentType":5125,"count":4668,"type":"SCALAR"},{"bufferView":57,"byteOffset":0,"componentType":5126,"count":2340,"max":[128.38189697265625,-37.49400329589844,12.199999809265137],"min":[-124.58346557617188,-154.91842651367188,0.20000000298023224],"type":"VEC3"},{"bufferView":58,"byteOffset":0,"componentType":5126,"count":2340,"type":"VEC3"},{"bufferView":59,"byteOffset":0,"componentType":5126,"count":2340,"type":"VEC2"},{"bufferView":60,"byteOffset":0,"componentType":5125,"count":9456,"type":"SCALAR"},{"bufferView":61,"byteOffset":0,"componentType":5126,"count":4752,"max":[130.88189697265625,-29.741500854492188,12.199999809265137],"min":[-127.08346557617188,-157.41848754882812,0.20000000298023224],"type":"VEC3"},{"bufferView":62,"byteOffset":0,"componentType":5126,"count":4752,"type":"VEC3"},{"bufferView":63,"byteOffset":0,"componentType":5126,"count":4752,"type":"VEC2"},{"bufferView":64,"byteOffset":0,"componentType":5125,"count":5022,"type":"SCALAR"},{"bufferView":65,"byteOffset":0,"componentType":5126,"count":2518,"max":[457.6198425292969,156.4977264404297,2],"min":[194.5762939453125,-155.84576416015625,2.9802322831784522e-9],"type":"VEC3"},{"bufferView":66,"byteOffset":0,"componentType":5126,"count":2518,"type":"VEC3"},{"bufferView":67,"byteOffset":0,"componentType":5126,"count":2518,"type":"VEC2"},{"bufferView":68,"byteOffset":0,"componentType":5125,"count":16032,"type":"SCALAR"},{"bufferView":69,"byteOffset":0,"componentType":5126,"count":8340,"max":[462.6211242675781,161.49755859375,2],"min":[189.57579040527344,-160.91390991210938,2.9802322831784522e-9],"type":"VEC3"},{"bufferView":70,"byteOffset":0,"componentType":5126,"count":8340,"type":"VEC3"},{"bufferView":71,"byteOffset":0,"componentType":5126,"count":8340,"type":"VEC2"}],"bufferViews":[{"buffer":0,"byteOffset":0,"byteLength":4560,"target":34963},{"buffer":0,"byteOffset":4560,"byteLength":7680,"target":34962},{"buffer":0,"byteOffset":12240,"byteLength":7680,"target":34962},{"buffer":0,"byteOffset":19920,"byteLength":5120,"target":34962},{"buffer":0,"byteOffset":25040,"byteLength":2472,"target":34963},{"buffer":0,"byteOffset":27512,"byteLength":4128,"target":34962},{"buffer":0,"byteOffset":31640,"byteLength":4128,"target":34962},{"buffer":0,"byteOffset":35768,"byteLength":2752,"target":34962},{"buffer":0,"byteOffset":38520,"byteLength":27648,"target":34963},{"buffer":0,"byteOffset":66168,"byteLength":17496,"target":34962},{"buffer":0,"byteOffset":83664,"byteLength":17496,"target":34962},{"buffer":0,"byteOffset":101160,"byteLength":11664,"target":34962},{"buffer":0,"byteOffset":112824,"byteLength":15792,"target":34963},{"buffer":0,"byteOffset":128616,"byteLength":23808,"target":34962},{"buffer":0,"byteOffset":152424,"byteLength":23808,"target":34962},{"buffer":0,"byteOffset":176232,"byteLength":15872,"target":34962},{"buffer":0,"byteOffset":192104,"byteLength":32448,"target":34963},{"buffer":0,"byteOffset":224552,"byteLength":49296,"target":34962},{"buffer":0,"byteOffset":273848,"byteLength":49296,"target":34962},{"buffer":0,"byteOffset":323144,"byteLength":32864,"target":34962},{"buffer":0,"byteOffset":356008,"byteLength":11472,"target":34963},{"buffer":0,"byteOffset":367480,"byteLength":17280,"target":34962},{"buffer":0,"byteOffset":384760,"byteLength":17280,"target":34962},{"buffer":0,"byteOffset":402040,"byteLength":11520,"target":34962},{"buffer":0,"byteOffset":413560,"byteLength":23424,"target":34963},{"buffer":0,"byteOffset":436984,"byteLength":35448,"target":34962},{"buffer":0,"byteOffset":472432,"byteLength":35448,"target":34962},{"buffer":0,"byteOffset":507880,"byteLength":23632,"target":34962},{"buffer":0,"byteOffset":531512,"byteLength":5712,"target":34963},{"buffer":0,"byteOffset":537224,"byteLength":8640,"target":34962},{"buffer":0,"byteOffset":545864,"byteLength":8640,"target":34962},{"buffer":0,"byteOffset":554504,"byteLength":5760,"target":34962},{"buffer":0,"byteOffset":560264,"byteLength":11520,"target":34963},{"buffer":0,"byteOffset":571784,"byteLength":17280,"target":34962},{"buffer":0,"byteOffset":589064,"byteLength":17280,"target":34962},{"buffer":0,"byteOffset":606344,"byteLength":11520,"target":34962},{"buffer":0,"byteOffset":617864,"byteLength":5712,"target":34963},{"buffer":0,"byteOffset":623576,"byteLength":8640,"target":34962},{"buffer":0,"byteOffset":632216,"byteLength":8640,"target":34962},{"buffer":0,"byteOffset":640856,"byteLength":5760,"target":34962},{"buffer":0,"byteOffset":646616,"byteLength":11520,"target":34963},{"buffer":0,"byteOffset":658136,"byteLength":17280,"target":34962},{"buffer":0,"byteOffset":675416,"byteLength":17280,"target":34962},{"buffer":0,"byteOffset":692696,"byteLength":11520,"target":34962},{"buffer":0,"byteOffset":704216,"byteLength":2832,"target":34963},{"buffer":0,"byteOffset":707048,"byteLength":4320,"target":34962},{"buffer":0,"byteOffset":711368,"byteLength":4320,"target":34962},{"buffer":0,"byteOffset":715688,"byteLength":2880,"target":34962},{"buffer":0,"byteOffset":718568,"byteLength":2832,"target":34963},{"buffer":0,"byteOffset":721400,"byteLength":4320,"target":34962},{"buffer":0,"byteOffset":725720,"byteLength":4320,"target":34962},{"buffer":0,"byteOffset":730040,"byteLength":2880,"target":34962},{"buffer":0,"byteOffset":732920,"byteLength":7056,"target":34963},{"buffer":0,"byteOffset":739976,"byteLength":10752,"target":34962},{"buffer":0,"byteOffset":750728,"byteLength":10752,"target":34962},{"buffer":0,"byteOffset":761480,"byteLength":7168,"target":34962},{"buffer":0,"byteOffset":768648,"byteLength":18672,"target":34963},{"buffer":0,"byteOffset":787320,"byteLength":28080,"target":34962},{"buffer":0,"byteOffset":815400,"byteLength":28080,"target":34962},{"buffer":0,"byteOffset":843480,"byteLength":18720,"target":34962},{"buffer":0,"byteOffset":862200,"byteLength":37824,"target":34963},{"buffer":0,"byteOffset":900024,"byteLength":57024,"target":34962},{"buffer":0,"byteOffset":957048,"byteLength":57024,"target":34962},{"buffer":0,"byteOffset":1014072,"byteLength":38016,"target":34962},{"buffer":0,"byteOffset":1052088,"byteLength":20088,"target":34963},{"buffer":0,"byteOffset":1072176,"byteLength":30216,"target":34962},{"buffer":0,"byteOffset":1102392,"byteLength":30216,"target":34962},{"buffer":0,"byteOffset":1132608,"byteLength":20144,"target":34962},{"buffer":0,"byteOffset":1152752,"byteLength":64128,"target":34963},{"buffer":0,"byteOffset":1216880,"byteLength":100080,"target":34962},{"buffer":0,"byteOffset":1316960,"byteLength":100080,"target":34962},{"buffer":0,"byteOffset":1417040,"byteLength":66720,"target":34962}],"extensions":{"KHR_lights_punctual":{"lights":[{"name":"Point Light","type":"point","intensity":1.96,"range":9982,"color":[1,1,1]}]}},"scene":0,"scenes":[{"nodes":[0,1,2,3,4],"name":"Finn"}],"extensionsUsed":["KHR_texture_transform","KHR_lights_punctual"],"extensionsRequired":["KHR_lights_punctual"],"buffers":[{"byteLength":1483760,"uri":"Finn.bin"}]}